<svg width="20" height="17" viewBox="0 0 20 17" fill="none" xmlns="http://www.w3.org/2000/svg">
<path fill-rule="evenodd" clip-rule="evenodd" d="M13.5038 6.28269L8.88846 3.20577C8.65236 3.04824 8.3487 3.03353 8.09847 3.1675C7.84825 3.30146 7.69212 3.56233 7.69231 3.84615V10C7.69212 10.2838 7.84825 10.5447 8.09847 10.6787C8.3487 10.8126 8.65236 10.7979 8.88846 10.6404L13.5038 7.56346C13.7181 7.42085 13.8469 7.18049 13.8469 6.92308C13.8469 6.66566 13.7181 6.42531 13.5038 6.28269ZM9.23077 8.5625V5.28846L11.6904 6.92308L9.23077 8.5625ZM18.4615 0H1.53846C0.688793 0 0 0.688792 0 1.53846V12.3077C0 13.1574 0.688793 13.8462 1.53846 13.8462H18.4615C19.3112 13.8462 20 13.1574 20 12.3077V1.53846C20 0.688792 19.3112 0 18.4615 0ZM18.4615 12.3077H1.53846V1.53846H18.4615V12.3077ZM20 16.1538C20 16.5787 19.6556 16.9231 19.2308 16.9231H0.769231C0.344396 16.9231 0 16.5787 0 16.1538C0 15.729 0.344396 15.3846 0.769231 15.3846H19.2308C19.6556 15.3846 20 15.729 20 16.1538Z" fill="#F9FCFF"/>
</svg>
