<svg width="21" height="19" viewBox="0 0 21 19" fill="none" xmlns="http://www.w3.org/2000/svg">
<path fill-rule="evenodd" clip-rule="evenodd" d="M21 11.2505V17.2505C21 18.0789 20.3284 18.7505 19.5 18.7505H1.5C0.671573 18.7505 0 18.0789 0 17.2505V11.2505C0 10.4221 0.671573 9.75049 1.5 9.75049H6C6.41421 9.75049 6.75 10.0863 6.75 10.5005C6.75 10.9147 6.41421 11.2505 6 11.2505H1.5V17.2505H19.5V11.2505H15C14.5858 11.2505 14.25 10.9147 14.25 10.5005C14.25 10.0863 14.5858 9.75049 15 9.75049H19.5C20.3284 9.75049 21 10.4221 21 11.2505ZM6.53063 5.78111L9.75 2.5608V10.5005C9.75 10.9147 10.0858 11.2505 10.5 11.2505C10.9142 11.2505 11.25 10.9147 11.25 10.5005V2.5608L14.4694 5.78111C14.7624 6.07417 15.2376 6.07417 15.5306 5.78111C15.8237 5.48806 15.8237 5.01292 15.5306 4.71986L11.0306 0.219863C10.8899 0.0790305 10.6991 -0.000101686 10.5 -0.000101686C10.3009 -0.000101686 10.1101 0.0790305 9.96937 0.219863L5.46938 4.71986C5.17632 5.01292 5.17632 5.48806 5.46938 5.78111C5.76243 6.07417 6.23757 6.07417 6.53063 5.78111ZM17.25 14.2505C17.25 13.6292 16.7463 13.1255 16.125 13.1255C15.5037 13.1255 15 13.6292 15 14.2505C15 14.8718 15.5037 15.3755 16.125 15.3755C16.7463 15.3755 17.25 14.8718 17.25 14.2505Z" fill="#F4F9FE"/>
</svg>
