<svg width="17" height="17" viewBox="0 0 17 17" fill="none" xmlns="http://www.w3.org/2000/svg">
<path fill-rule="evenodd" clip-rule="evenodd" d="M16.8086 15.8842L12.7208 11.7972C15.1821 8.84222 14.8839 4.47394 12.0437 1.88091C9.20363 -0.71212 4.82632 -0.612638 2.10694 2.10674C-0.612443 4.82612 -0.711924 9.20344 1.88111 12.0435C4.47414 14.8837 8.84241 15.1819 11.7974 12.7206L15.8844 16.8084C16.1396 17.0636 16.5534 17.0636 16.8086 16.8084C17.0638 16.5532 17.0638 16.1394 16.8086 15.8842ZM1.32433 7.20237C1.32433 3.95591 3.95611 1.32413 7.20257 1.32413C10.449 1.32413 13.0808 3.95591 13.0808 7.20237C13.0808 10.4488 10.449 13.0806 7.20257 13.0806C3.9576 13.077 1.32793 10.4473 1.32433 7.20237Z" fill="#4F7396"/>
</svg>
