<svg width="20" height="20" viewBox="0 0 20 20" fill="none" xmlns="http://www.w3.org/2000/svg">
<path fill-rule="evenodd" clip-rule="evenodd" d="M19.0205 5.68607C21.2291 10.3052 19.5916 15.8465 15.2271 18.5232C10.8625 21.2 5.1811 20.1475 2.06512 16.0848C-1.05087 12.0221 -0.594588 6.26208 3.12217 2.74066C6.83892 -0.780754 12.6152 -0.925706 16.5039 2.40486L18.6814 0.226348C18.9817 -0.0739111 19.4685 -0.0739111 19.7688 0.226348C20.069 0.526607 20.069 1.01342 19.7688 1.31368L10.5476 10.5349C10.2473 10.8352 9.76048 10.8352 9.46022 10.5349C9.15996 10.2346 9.15996 9.74782 9.46022 9.44756L12.1228 6.78493C10.6373 5.80243 8.67121 5.9697 7.37297 7.18905C6.07473 8.40841 5.78469 10.3601 6.67226 11.9043C7.55982 13.4485 9.39228 14.1802 11.0994 13.6722C12.8064 13.1641 13.9406 11.5495 13.8393 9.77126C13.8155 9.34687 14.1401 8.98347 14.5645 8.9596C14.9889 8.93573 15.3523 9.26042 15.3762 9.68481C15.5205 12.2033 13.8952 14.4838 11.4674 15.1692C9.03965 15.8546 6.46171 14.7608 5.26766 12.5386C4.0736 10.3164 4.58425 7.56296 6.49573 5.91672C8.40721 4.27049 11.206 4.17378 13.2265 5.68415L15.4117 3.49892C12.0955 0.745578 7.23754 0.932943 4.14322 3.93353C1.04889 6.93411 0.712218 11.784 3.36227 15.1834C6.01232 18.5827 10.7978 19.4395 14.4627 17.1708C18.1275 14.9021 19.4945 10.2366 17.6335 6.34885C17.4505 5.96583 17.6126 5.50697 17.9956 5.32395C18.3786 5.14093 18.8375 5.30306 19.0205 5.68607Z" fill="#F9FCFF"/>
</svg>
