<svg width="20" height="20" viewBox="0 0 20 20" fill="none" xmlns="http://www.w3.org/2000/svg">
<path fill-rule="evenodd" clip-rule="evenodd" d="M11.1538 15C11.1538 15.6373 10.6373 16.1538 10 16.1538C9.36275 16.1538 8.84615 15.6373 8.84615 15C8.84615 14.3627 9.36275 13.8462 10 13.8462C10.6373 13.8462 11.1538 14.3627 11.1538 15ZM10 4.61538C7.87885 4.61538 6.15385 6.16827 6.15385 8.07692V8.46154C6.15385 8.88637 6.49824 9.23077 6.92308 9.23077C7.34791 9.23077 7.69231 8.88637 7.69231 8.46154V8.07692C7.69231 7.01923 8.72788 6.15385 10 6.15385C11.2721 6.15385 12.3077 7.01923 12.3077 8.07692C12.3077 9.13462 11.2721 10 10 10C9.57517 10 9.23077 10.3444 9.23077 10.7692V11.5385C9.23077 11.9633 9.57517 12.3077 10 12.3077C10.4248 12.3077 10.7692 11.9633 10.7692 11.5385V11.4692C12.5231 11.1471 13.8462 9.74808 13.8462 8.07692C13.8462 6.16827 12.1212 4.61538 10 4.61538ZM20 10C20 15.5228 15.5228 20 10 20C4.47715 20 0 15.5228 0 10C0 4.47715 4.47715 0 10 0C15.5204 0.00582964 19.9942 4.47957 20 10ZM18.4615 10C18.4615 5.32682 14.6732 1.53846 10 1.53846C5.32682 1.53846 1.53846 5.32682 1.53846 10C1.53846 14.6732 5.32682 18.4615 10 18.4615C14.671 18.4562 18.4562 14.671 18.4615 10Z" fill="#F9FCFF"/>
</svg>
