<?xml version="1.0" encoding="UTF-8"?>
<svg version="1.1" xmlns="http://www.w3.org/2000/svg" width="378" height="313">
<path d="M0 0 C5.98319889 1.54216219 10.59314616 4.7703944 15.6875 8.125 C25.44073395 14.44554078 35.35056841 20.43647518 45.37182617 26.31689453 C54.07507401 31.42699797 62.67366485 36.684579 71.24169922 42.01782227 C78.47481936 46.51999552 85.80893494 50.82167309 93.20166016 55.0559082 C98.2060555 57.92919228 103.12978863 60.90456198 108 64 C104.07935055 52.69930451 99.47603817 41.78432557 94.0625 31.125 C91.21685544 25.51690079 88.49755562 19.86967373 85.9375 14.125 C85.62627197 13.44066895 85.31504395 12.75633789 84.99438477 12.05126953 C84.2668351 10.3936629 83.62492791 8.69895656 83 7 C83.33 6.34 83.66 5.68 84 5 C87.65464986 6.53392788 89.94394 8.7262778 92.703125 11.54296875 C93.60160156 12.45240234 94.50007813 13.36183594 95.42578125 14.29882812 C96.36756931 15.26134531 97.30897355 16.22423819 98.25 17.1875 C103.76878764 22.81107475 109.26213067 28.35551327 115.25292969 33.4777832 C117.80261167 35.69931299 120.13717476 38.08023921 122.5 40.5 C126.09573396 44.14434159 129.76876437 47.61892844 133.66015625 50.9453125 C137.57079011 54.37935826 141.34469801 57.96027605 145.14160156 61.51904297 C149.40639266 65.51556153 153.69445079 69.484968 158 73.4375 C161.90202747 77.02280068 165.71041793 80.67478942 169.42578125 84.453125 C171.06355173 86.06244785 172.76039229 87.56398931 174.5 89.0625 C178.61233301 92.61149972 182.59028163 96.29600373 186.5625 100 C187.18769531 100.58144775 187.81289063 101.16289551 188.45703125 101.76196289 C191.5483292 104.65153091 194.57969702 107.57676257 197.5390625 110.6015625 C200.75475565 113.83846794 204.17858847 116.62555428 207.8125 119.375 C228.21169793 135.19649982 241.05468473 152.55125254 244.46484375 178.54296875 C246.36304068 198.78329333 242.12703128 217.50623935 230 234 C229.33226562 234.92425781 228.66453125 235.84851563 227.9765625 236.80078125 C216.83618275 251.3395801 198.52002808 262.62690184 180.27636719 265.71875 C158.0583658 268.46383125 136.10814344 265.18791136 118 251.4375 C116.30847282 249.98682857 114.64419464 248.50410631 113 247 C112.47970215 246.53271484 111.9594043 246.06542969 111.42333984 245.58398438 C101.83822722 236.88080164 94.58245118 227.25161895 87.56591797 216.41259766 C85.55280523 213.31101049 83.49373147 210.24144683 81.43408203 207.1706543 C77.9359887 201.95090557 74.469293 196.71024614 71.00390625 191.46875 C65.98778222 183.89608915 60.89987179 176.39531613 55.625 169 C52.09318163 164.0465482 48.77520295 159.08467088 45.7265625 153.81640625 C41.68232696 147.2193614 37.1557999 140.92062363 32.75976562 134.55517578 C30.44550086 131.19486847 28.15089442 127.82135493 25.85571289 124.44799805 C23.24946488 120.62349215 20.62681101 116.8104005 18 113 C17.29488281 111.97390625 16.58976562 110.9478125 15.86328125 109.890625 C10.97393695 102.96149136 5.46085088 96.63589906 -0.14453125 90.28515625 C-6 83.59722781 -6 83.59722781 -6 81 C-2.83743915 81.6028278 -0.90009563 82.6010082 1.6171875 84.58984375 C2.29918213 85.1216626 2.98117676 85.65348145 3.68383789 86.20141602 C4.76846313 87.06077759 4.76846313 87.06077759 5.875 87.9375 C7.41136896 89.13460045 8.94914797 90.32989328 10.48828125 91.5234375 C11.25221191 92.11608398 12.01614258 92.70873047 12.80322266 93.31933594 C15.83847338 95.64148152 18.93781919 97.86291009 22.0625 100.0625 C27.29069683 103.75321574 32.44392122 107.5335806 37.5625 111.375 C38.22967041 111.87523682 38.89684082 112.37547363 39.58422852 112.89086914 C42.34534894 114.96934705 45.08057598 117.06459678 47.77734375 119.2265625 C50.07540924 121.11191241 50.07540924 121.11191241 53 123 C51.02250193 115.10147147 47.80417492 107.93756539 44.27960205 100.63146973 C42.57923622 97.10368013 40.90445837 93.56380238 39.23046875 90.0234375 C38.88072998 89.28432129 38.53099121 88.54520508 38.1706543 87.78369141 C34.34653538 79.6685196 30.73581548 71.46166975 27.125 63.25 C14.6431519 34.66705211 14.6431519 34.66705211 0.79833984 6.734375 C-0.26071947 4.43359292 -0.13883004 2.49894067 0 0 Z M50 59 C50.59067807 63.39070699 51.68450841 67.09807381 53.375 71.1875 C53.63410156 71.82002686 53.89320313 72.45255371 54.16015625 73.10424805 C54.76032078 74.56884638 55.36304856 76.0323959 55.96777344 77.49511719 C57.10544173 80.25587325 58.22942315 83.02195864 59.3515625 85.7890625 C62.22224853 92.86433798 65.10823032 99.9333217 68 107 C68.28073364 107.68604309 68.56146729 108.37208618 68.85070801 109.07891846 C70.93844021 114.17913349 73.03033835 119.27762723 75.125 124.375 C75.42174622 125.09757996 75.71849243 125.82015991 76.02423096 126.56463623 C80.07628497 136.42466204 84.18700067 146.25526192 88.51220703 155.99951172 C91 161.6802326 91 161.6802326 91 165 C85.83928066 163.31760549 81.68103 160.23107293 77.25 157.1875 C68.47737321 150.98020301 68.47737321 150.98020301 59 146 C58.01 146.495 58.01 146.495 57 147 C62.41125744 155.69716312 68.13987296 164.09397898 74.18237305 172.36547852 C78.24652794 177.93107139 82.16708268 183.57386377 86 189.30078125 C88.11290068 192.15237182 90.43396632 194.55424914 93 197 C94.25985168 194.48029663 94.18579991 192.21714162 94.28930664 189.44116211 C95.03343018 169.87134914 100.8745487 152.10361908 115 138 C135.49970638 119.49294151 157.24179966 117.43541992 184 118 C182.27503859 114.21138612 180.31305424 112.54257651 177 110 C175.31804088 108.34876741 173.65417227 106.67906809 172 105 C170.96628744 103.95990379 169.93199628 102.9203824 168.8972168 101.88134766 C168.34281418 101.32371735 167.78841156 100.76608704 167.21720886 100.19155884 C164.70405784 97.66489496 162.18813575 95.1409975 159.67211914 92.6171875 C158.35350508 91.2935449 157.03578997 89.96900613 155.71899414 88.64355469 C146.37003942 79.15516181 146.37003942 79.15516181 136.44726562 70.27954102 C134.34289036 68.41904325 132.72849947 66.20532691 131 64 C127.9266751 60.96733837 127.9266751 60.96733837 124 60 C124.56227424 65.76331101 126.81815348 70.39476505 129.25 75.5625 C132.81010351 83.28136486 136.09722468 91.00642776 139 99 C130.99461915 96.0138753 123.34719385 92.35911871 115.68429565 88.60250854 C113.51716681 87.54027971 111.34788569 86.48256606 109.17797852 85.42602539 C106.21337755 83.98229007 103.24943191 82.53722586 100.28613281 81.09082031 C75.96949378 66.61230012 75.96949378 66.61230012 50 59 Z " fill="#FEFEFE" transform="translate(88,17)"/>
<path d="M0 0 C3.75212276 2.01502889 5.63644095 3.45466142 8 7 C8.54672123 10.71770436 8.55429073 14.28299158 8 18 C5.5625 21.125 5.5625 21.125 3 23 C2.67 23.33 2.34 23.66 2 24 C-3.08468358 24.58411619 -6.94067489 24.56749559 -11.5 22.125 C-15.96490021 18.32983482 -15.96490021 18.32983482 -16.265625 15.50390625 C-16.26046875 14.53324219 -16.2553125 13.56257812 -16.25 12.5625 C-16.25515625 11.59441406 -16.2603125 10.62632812 -16.265625 9.62890625 C-16 7 -16 7 -14 4 C-13.34 4 -12.68 4 -12 4 C-12 3.34 -12 2.68 -12 2 C-8.28580284 -0.47613144 -4.31026888 -0.68798522 0 0 Z " fill="#C0C0C0" transform="translate(290,226)"/>
<path d="M0 0 C3.58563508 1.88992849 5.56160959 3.48476724 7 7.23828125 C7.265625 9.45703125 7.265625 9.45703125 7.25 11.73828125 C7.25515625 12.49109375 7.2603125 13.24390625 7.265625 14.01953125 C6.96581437 16.52383184 6.33532749 18.10540322 5 20.23828125 C0.93170456 23.01662935 -2.88271908 23.9628744 -7.7421875 23.7734375 C-11.3338074 22.92213659 -13.35041712 21.11341286 -15.75 18.375 C-18.4326665 13.78931696 -17.49533992 9.30970274 -16.3125 4.36328125 C-12.71678797 -1.45834775 -6.0871026 -2.31833009 0 0 Z " fill="#BFBFBF" transform="translate(215,194.76171875)"/>
<path d="M0 0 C1.8871875 0.0309375 1.8871875 0.0309375 3.8125 0.0625 C3.8125 0.7225 3.8125 1.3825 3.8125 2.0625 C4.575625 2.330625 5.33875 2.59875 6.125 2.875 C8.80745256 4.06026974 10.0239312 4.79219634 11.8125 7.0625 C12.50197718 10.45242949 12.41031201 13.66040621 11.8125 17.0625 C9.4375 20.0625 9.4375 20.0625 6.8125 22.0625 C6.1525 22.7225 5.4925 23.3825 4.8125 24.0625 C-1.19491052 24.45642856 -5.45284564 24.23413729 -10.3125 20.375 C-12.76004311 17.3563635 -12.60408522 15.64396008 -12.4375 11.8125 C-12.40140625 10.73484375 -12.3653125 9.6571875 -12.328125 8.546875 C-12.28171875 7.72703125 -12.2353125 6.9071875 -12.1875 6.0625 C-11.5275 6.0625 -10.8675 6.0625 -10.1875 6.0625 C-10.1875 5.4025 -10.1875 4.7425 -10.1875 4.0625 C-9.5275 4.0625 -8.8675 4.0625 -8.1875 4.0625 C-7.8575 3.0725 -7.5275 2.0825 -7.1875 1.0625 C-4.43671116 0.14557039 -2.82801087 -0.04636083 0 0 Z " fill="#C0C0C0" transform="translate(221.1875,160.9375)"/>
<path d="M0 0 C3.51732742 1.28517733 5.4770624 2.37247488 7.875 5.25 C9.63572523 9.553995 9.4169901 13.20694258 8.375 17.6875 C6.38570908 21.03312564 4.49522239 22.28416355 1 24 C-2.134789 24.59605143 -4.87428775 24.67473862 -8 24 C-11.23569211 21.52159753 -13.76679461 18.92383532 -15 15 C-15.5702067 9.8681397 -15.5702067 9.8681397 -15 7 C-10.58351742 1.50923788 -7.05253725 -0.59767265 0 0 Z " fill="#BFBFBF" transform="translate(289,161)"/>
<path d="M0 0 C2.7918747 1.77664754 3.77423074 3.26133597 5.0625 6.3125 C5.32176574 10.07185317 5.25461438 12.73615687 4.0625 16.3125 C3.4025 16.3125 2.7425 16.3125 2.0625 16.3125 C1.629375 17.5190625 1.629375 17.5190625 1.1875 18.75 C0.0625 21.3125 0.0625 21.3125 -1.9375 22.3125 C-7.12308766 23.06142399 -11.67831611 23.12003271 -16.0625 20 C-18.96332803 17.11974521 -19.45573704 14.79047066 -19.625 10.75 C-19.33070211 6.14768189 -18.50132825 3.45705434 -14.9375 0.3125 C-10.57247357 -1.87001322 -4.63129156 -1.0839193 0 0 Z " fill="#BFBFBF" transform="translate(227.9375,227.6875)"/>
<path d="M0 0 C3.41296936 2.38114141 3.90855463 3.82448406 4.6875 7.875 C5.10763494 11.23607952 5.40007658 13.66971248 3.63671875 16.65234375 C2.3125 18.3125 2.3125 18.3125 -0.3125 20.875 C-0.9725 20.875 -1.6325 20.875 -2.3125 20.875 C-2.3125 21.535 -2.3125 22.195 -2.3125 22.875 C-6.32598214 23.36644679 -9.84434988 23.7266893 -13.43359375 21.64453125 C-17.50188923 18.21904337 -19.10821085 16.04046494 -19.625 10.5625 C-19.25100592 6.14936983 -18.18423285 4.21241926 -15.3125 0.875 C-10.38329539 -2.05587841 -5.32050552 -1.80696414 0 0 Z " fill="#BFBFBF" transform="translate(309.3125,195.125)"/>
<path d="M0 0 C3.16763158 2.35522725 4.7564109 5.26923271 6 9 C6.87700535 15.57754011 6.87700535 15.57754011 4.71875 19.078125 C2.35292998 21.72354193 0.39340583 23.69487464 -3.140625 24.46875 C-6.31463943 24.51577244 -8.99691131 24.00102956 -12 23 C-16.55323772 17.91108725 -17.35304358 14.03577078 -17.28515625 7.3828125 C-17 5 -17 5 -15.25 2.4375 C-10.77642878 -0.42061494 -5.18067887 -0.99734994 0 0 Z " fill="#BEBEBE" transform="translate(259,145)"/>
<path d="M0 0 C3.5544915 1.39088798 4.71251242 2.56381194 6.8125 5.75 C8.1869933 9.51177112 8.50596268 12.02457898 8 16 C5.9209015 19.22618733 4.19960471 20.8669302 1 23 C-2.39075363 23.54596881 -5.60910706 23.54709295 -9 23 C-12 20.625 -12 20.625 -14 18 C-14.66 17.34 -15.32 16.68 -16 16 C-16.71406499 12.24176322 -16.83772418 8.50728067 -14.94921875 5.109375 C-10.45679247 -0.35044692 -6.70950582 -0.62792602 0 0 Z " fill="#BFBFBF" transform="translate(257,243)"/>
<path d="M0 0 C3.12603632 1.24280551 3.79695509 2.17558345 6 5 C6.95912499 9.17705884 6.85552144 12.97119202 5.1796875 16.9453125 C3.48401466 19.39988787 1.65602002 20.80506167 -1.1953125 21.65234375 C-5.51606629 22.2869099 -8.16142125 22.22829061 -12 20 C-12 19.34 -12 18.68 -12 18 C-12.99 17.67 -13.98 17.34 -15 17 C-16.61429923 13.77140153 -16.59570657 10.49006347 -16 7 C-12.13224484 0.26029231 -7.33390811 -1.03190667 0 0 Z " fill="#C0C0C0" transform="translate(258,195)"/>
</svg>
