<?xml version="1.0" encoding="UTF-8"?>
<svg version="1.1" xmlns="http://www.w3.org/2000/svg" width="520" height="390">
<path d="M0 0 C171.6 0 343.2 0 520 0 C520 128.7 520 257.4 520 390 C348.4 390 176.8 390 0 390 C0 261.3 0 132.6 0 0 Z " fill="#F0F0F0" transform="translate(0,0)"/>
<path d="M0 0 C9.57 0 19.14 0 29 0 C30.2375 4.2075 30.2375 4.2075 31.5 8.5 C37.42815054 27.69276015 47.19331658 47.50090881 65.359375 57.64453125 C66.23078125 58.09183594 67.1021875 58.53914063 68 59 C68.80953125 59.41636719 69.6190625 59.83273437 70.453125 60.26171875 C81.84111652 65.23959848 95.62403583 64.35139887 107.15234375 60.28515625 C110.79569722 58.64089933 113.99410185 56.65533919 117.1953125 54.26953125 C119 53 119 53 122 52 C122.70324904 50.68559405 123.36572923 49.34904515 124 48 C125.05098778 46.78377961 126.1374434 45.59766601 127.25 44.4375 C138.13511364 32.20019833 143.17174953 15.6074827 147 0 C156.24 0 165.48 0 175 0 C173.03543725 6.54854249 171.26191452 12.1223954 168.1875 18.0625 C167.65539917 19.10144409 167.65539917 19.10144409 167.11254883 20.16137695 C164.40486607 25.3719392 161.5709031 30.32477699 158 35 C157.23300781 36.01578125 156.46601563 37.0315625 155.67578125 38.078125 C140.90126119 56.92808851 120.112327 66.26838815 96.8125 69.8125 C86.20652283 71.44526688 76.93970047 74.72699917 67.16455078 79.06689453 C63.82214128 80.50775728 60.41843855 81.75162824 57 83 C57 83.33 57 83.66 57 84 C61.60374502 84.81979746 66.20784404 85.63756925 70.81225586 86.45361328 C72.37257162 86.73042539 73.93279602 87.00775314 75.49291992 87.28564453 C83.02278149 88.62654563 90.54622988 89.95323515 98.11328125 91.0703125 C102.84978992 91.77867263 107.36873397 92.79357763 112 94 C122.14656485 95.88286771 132.34608743 96.22349063 142.64425659 96.29754639 C144.6321364 96.31209482 146.61991616 96.33873571 148.60766602 96.36572266 C163.93932404 96.35597899 178.0771038 93.86213584 189.5 83 C192.43526871 79.87225465 194.41035499 76.97411253 196 73 C197.65 73.33 199.3 73.66 201 74 C198.94642919 87.23412302 191.74816332 100.91975708 181.125 109.25 C179.76498166 110.18875071 178.38966101 111.10571534 177 112 C176.32324219 112.45246094 175.64648438 112.90492188 174.94921875 113.37109375 C159.75680388 122.73095446 139.48689398 121.68781885 122.6171875 118.046875 C112.85002699 115.22009421 103.49937509 111.21713537 94.125 107.3125 C92.84592492 106.78249097 91.56679002 106.2526263 90.28759766 105.72290039 C84.44817646 103.30000895 78.62205477 100.85062131 72.828125 98.3203125 C71.8985498 97.91514404 70.96897461 97.50997559 70.01123047 97.0925293 C68.32484896 96.35366368 66.64127308 95.60833968 64.96142578 94.85473633 C52.52563336 89.10452832 52.52563336 89.10452832 39.625 88.875 C38.75875 89.24625 37.8925 89.6175 37 90 C31.42402083 91.01122483 25.95999073 91.21489516 20.3125 91.25 C19.47138672 91.270625 18.63027344 91.29125 17.76367188 91.3125 C11.59900519 91.3516097 11.59900519 91.3516097 8.41796875 89.484375 C7.95003906 88.99453125 7.48210937 88.5046875 7 88 C7.1875 85.6875 7.1875 85.6875 8 83 C11.61646985 80.28483105 14.22579744 79.62886655 18.703125 79.671875 C19.7653125 79.67703125 20.8275 79.6821875 21.921875 79.6875 C23.02015625 79.708125 24.1184375 79.72875 25.25 79.75 C26.36375 79.75515625 27.4775 79.7603125 28.625 79.765625 C36.8458282 79.8458282 36.8458282 79.8458282 38 81 C47.54830089 81.69442188 55.30195956 78.57758908 63.66015625 74.20703125 C66.71189764 72.63276065 69.82741466 71.31041568 73 70 C73 69.67 73 69.34 73 69 C72.01902344 68.86464844 71.03804688 68.72929687 70.02734375 68.58984375 C59.69392554 67.0046548 51.18068412 63.95860679 42 59 C40.55173828 58.23042969 40.55173828 58.23042969 39.07421875 57.4453125 C20.71027741 46.76180393 9.09734654 28.56193851 2 9 C1.34 6.03 0.68 3.06 0 0 Z " fill="#1A1A1A" transform="translate(83,226)"/>
<path d="M0 0 C1.20914063 0.474375 2.41828125 0.94875 3.6640625 1.4375 C25.62585247 10.36405977 41.73542731 25.34490755 51.375 47.125 C55.9076844 58.45029077 59 68.75067522 59 81 C49.76 81 40.52 81 31 81 C30.29875 77.74125 29.5975 74.4825 28.875 71.125 C23.51465356 47.3059556 15.92119417 23.57315406 -5.5234375 9.46484375 C-17.40479412 2.43722745 -30.60309488 -0.24424651 -44.3125 2.6875 C-62.27425656 9.08066759 -73.12385169 20.98979466 -81.30151367 37.85180664 C-86.87752586 49.92957821 -89.6111172 62.07571416 -91.421875 75.2109375 C-92 79 -92 79 -93 81 C-102.24 81 -111.48 81 -121 81 C-118.24454771 56.20092937 -106.76105084 31.11315556 -87.3125 14.9375 C-63.47738876 -3.35795236 -28.94441271 -11.5438127 0 0 Z " fill="#181818" transform="translate(202,87)"/>
<path d="M0 0 C1.03253906 0.31710938 2.06507813 0.63421875 3.12890625 0.9609375 C12.45539729 4.12588392 20.03525793 9.36080292 28 15 C30.74576241 17.23112508 30.74576241 17.23112508 33.5 17 C36.21567908 16.18525714 36.21567908 16.18525714 37.6875 13.5 C39.22952774 9.38792602 40.18631415 5.30774861 41 1 C42.98 1 44.96 1 47 1 C47 22.78 47 44.56 47 67 C44.69 67 42.38 67 40 67 C39.83918945 66.29504395 39.67837891 65.59008789 39.51269531 64.86376953 C38.76674816 61.61554746 38.00845745 58.37032274 37.25 55.125 C36.99734375 54.01640625 36.7446875 52.9078125 36.484375 51.765625 C32.49239764 34.79972123 25.7580402 22.03465646 11 12 C7.43834462 9.95204816 3.85678224 8.40622623 0 7 C-1.53527344 6.4121875 -1.53527344 6.4121875 -3.1015625 5.8125 C-18.48377386 0.62505636 -35.02978605 1.2924632 -49.6953125 8.28515625 C-68.23095684 18.45992126 -77.34133723 38.80215051 -83.12109375 58.26953125 C-84.96372724 66.09048671 -85.91738818 74.04280309 -87 82 C-96.57 82 -106.14 82 -116 82 C-111.66281106 55.01304659 -100.15447542 30.09173105 -78.0625 13.0625 C-55.77613833 -2.59572137 -26.37953652 -9.10149507 0 0 Z " fill="#1A1A1A" transform="translate(411,86)"/>
<path d="M0 0 C9.24 0 18.48 0 28 0 C29.0307718 3.0923154 30.05698634 6.18686219 31.0078125 9.3046875 C36.91718544 28.18988633 45.67074376 46.56601362 63.54296875 56.7421875 C64.75919922 57.36480469 64.75919922 57.36480469 66 58 C66.95326172 58.49886719 66.95326172 58.49886719 67.92578125 59.0078125 C81.19317332 65.29076139 97.63432195 64.50153997 111.38671875 60.3359375 C126.70956479 54.67062577 137.46184318 47.02728491 144.625 31.9375 C148.65132829 21.811485 150.07379891 10.67771922 152 0 C154.64 0 157.28 0 160 0 C160 21.45 160 42.9 160 65 C158.02 65 156.04 65 154 65 C153.80664062 64.08476562 153.61328125 63.16953125 153.4140625 62.2265625 C153.15367187 61.03804688 152.89328125 59.84953125 152.625 58.625 C152.36976563 57.44164062 152.11453125 56.25828125 151.8515625 55.0390625 C151.24476035 51.91803033 151.24476035 51.91803033 149 50 C143.62188541 49.23058765 140.48763037 51.1883528 136.25 54.1875 C135.01015289 55.02171812 133.76795334 55.8524505 132.5234375 56.6796875 C131.92112305 57.08155273 131.31880859 57.48341797 130.69824219 57.89746094 C112.38371692 69.78768465 89.16637278 72.88589356 67.92114258 68.921875 C45.23768264 64.00286915 26.1447934 52.11538933 13.25 32.5625 C0 10.61426471 0 10.61426471 0 0 Z " fill="#1A1A1A" transform="translate(298,226)"/>
<path d="M0 0 C2.64 0 5.28 0 8 0 C8 21.45 8 42.9 8 65 C6.02 65 4.04 65 2 65 C1.80664062 64.08476562 1.61328125 63.16953125 1.4140625 62.2265625 C1.15367187 61.03804688 0.89328125 59.84953125 0.625 58.625 C0.24214844 56.84996094 0.24214844 56.84996094 -0.1484375 55.0390625 C-0.75523965 51.91803033 -0.75523965 51.91803033 -3 50 C-8.37811459 49.23058765 -11.51236963 51.1883528 -15.75 54.1875 C-16.98984711 55.02171812 -18.23204666 55.8524505 -19.4765625 56.6796875 C-20.07887695 57.08155273 -20.68119141 57.48341797 -21.30175781 57.89746094 C-39.82648592 69.92415331 -63.48499159 73.10328863 -84.89038086 68.56494141 C-88.2802964 67.77426864 -91.64231469 66.91834128 -95 66 C-92.44578019 65.2804241 -90.76185252 65.0152009 -88.0625 65.1875 C-84.85692939 65.3195992 -84.85692939 65.3195992 -82.75 62.875 C-80 61 -80 61 -78.09765625 61.1796875 C-76.96650391 61.46199219 -76.96650391 61.46199219 -75.8125 61.75 C-57.4315238 66.29053876 -38.9459448 61.59949868 -23 52 C-6.04374875 39.60384546 -3.47131321 19.24290667 0 0 Z " fill="#1B1B1B" transform="translate(450,226)"/>
<path d="M0 0 C3.0625 1.9375 3.0625 1.9375 5 5 C5.83028448 9.45774093 5.5660262 12.89153203 3.5 16.9375 C3.005 17.618125 2.51 18.29875 2 19 C2 19.66 2 20.32 2 21 C3.32 21.33 4.64 21.66 6 22 C6 22.66 6 23.32 6 24 C3.66666667 23.66666667 1.33333333 23.33333333 -1 23 C-2.19625 22.896875 -3.3925 22.79375 -4.625 22.6875 C-9.74801054 21.64392378 -12.15160461 19.27259308 -15 15 C-15.48384204 10.08093925 -15.51355236 7.94151265 -13.125 3.5625 C-9.46937941 -0.84574836 -5.45575384 -0.79955013 0 0 Z " fill="#EAEAEA" transform="translate(129,186)"/>
<path d="M0 0 C9 0 9 0 12.0625 1.0625 C14 3 14 3 14.5 6.4375 C13.99877967 10.00869484 13.45227363 11.44554831 11 14 C12.32 16.64 13.64 19.28 15 22 C9.98531823 20.74632956 9.76103265 19.14154898 7 15 C4.87880872 14.04768403 4.87880872 14.04768403 3 14 C3 16.64 3 19.28 3 22 C2.01 22 1.02 22 0 22 C0 14.74 0 7.48 0 0 Z " fill="#333333" transform="translate(406,185)"/>
<path d="M0 0 C9 0 9 0 12.0625 1.625 C14 4 14 4 14.5 7.0625 C13.96206703 10.22285617 13.53923335 11.1444064 11 13 C8.29120665 14.35439668 5.99066732 14.06501451 3 14 C3 16.64 3 19.28 3 22 C2.01 22 1.02 22 0 22 C0 14.74 0 7.48 0 0 Z " fill="#414141" transform="translate(329,185)"/>
<path d="M0 0 C3.63 0 7.26 0 11 0 C11.99 0.99 12.98 1.98 14 3 C14 6.5 14 6.5 13 10 C10.31851774 12.30905417 8.71136356 12.95257576 5.1875 13.1875 C4.465625 13.125625 3.74375 13.06375 3 13 C3 15.97 3 18.94 3 22 C2.01 22 1.02 22 0 22 C0 14.74 0 7.48 0 0 Z " fill="#2E2E2E" transform="translate(355,186)"/>
<path d="M0 0 C3.0625 1.9375 3.0625 1.9375 5 5 C5.83028448 9.45774093 5.5660262 12.89153203 3.5 16.9375 C3.005 17.618125 2.51 18.29875 2 19 C2 19.66 2 20.32 2 21 C3.32 21.33 4.64 21.66 6 22 C6 22.66 6 23.32 6 24 C3.66666667 23.66666667 1.33333333 23.33333333 -1 23 C-2.19625 22.896875 -3.3925 22.79375 -4.625 22.6875 C-9.74801054 21.64392378 -12.15160461 19.27259308 -15 15 C-15.48384204 10.08093925 -15.51355236 7.94151265 -13.125 3.5625 C-9.46937941 -0.84574836 -5.45575384 -0.79955013 0 0 Z M-10.5 3.9375 C-12.53188702 8.085936 -12.37429837 11.60553693 -11 16 C-8.83598102 18.81385559 -8.18934161 18.9729512 -4.5 19.5 C-0.9505684 19.35759384 -0.9505684 19.35759384 0.9375 17 C2.59092459 12.33150705 2.93098805 8.19056012 0.9375 3.5 C-1.05602294 1.71056004 -1.05602294 1.71056004 -4.4375 1.4375 C-8.04557543 1.7139952 -8.04557543 1.7139952 -10.5 3.9375 Z " fill="#2E2E2E" transform="translate(129,186)"/>
<path d="M0 0 C0.99 0 1.98 0 3 0 C3.07347656 1.68029297 3.07347656 1.68029297 3.1484375 3.39453125 C3.22347856 4.86721203 3.29902582 6.33986707 3.375 7.8125 C3.4059375 8.55048828 3.436875 9.28847656 3.46875 10.04882812 C3.67346148 13.81893115 3.86433827 15.79650741 6 19 C9.58357241 19.25015873 9.58357241 19.25015873 13 19 C14.585869 15.828262 14.37866445 12.36486178 14.5625 8.875 C14.60568359 8.12089844 14.64886719 7.36679688 14.69335938 6.58984375 C14.7994832 4.72678112 14.90025001 2.86341476 15 1 C15.99 1 16.98 1 18 1 C18.13559675 3.56428515 18.23433188 6.12135216 18.3125 8.6875 C18.35439453 9.40873047 18.39628906 10.12996094 18.43945312 10.87304688 C18.53407233 15.0173679 18.33335273 16.56089398 15.734375 19.984375 C11.64482198 22.9989598 9.97375912 22.71053702 5 22 C2.56880377 20.12984906 1.35930827 18.71861655 0 16 C-0.07181821 13.28239892 -0.09299506 10.59140612 -0.0625 7.875 C-0.05798828 7.12089844 -0.05347656 6.36679688 -0.04882812 5.58984375 C-0.03703499 3.72652873 -0.01909942 1.86325445 0 0 Z " fill="#323232" transform="translate(145,185)"/>
<path d="M0 0 C2.64 0 5.28 0 8 0 C8 8.25 8 16.5 8 25 C7.67 25 7.34 25 7 25 C7 20.71 7 16.42 7 12 C2.08514186 13.3909864 2.08514186 13.3909864 0.6875 16.125 C0.460625 16.74375 0.23375 17.3625 0 18 C-0.66 17.67 -1.32 17.34 -2 17 C-2.25706972 11.08739655 -1.2982126 5.76081841 0 0 Z " fill="#2F2F2F" transform="translate(450,226)"/>
<path d="M0 0 C0.99 0 1.98 0 3 0 C3 2.64 3 5.28 3 8 C6.19199167 5.58443874 8.74716687 3.31996462 11 0 C11.99 0.33 12.98 0.66 14 1 C11.69 3.64 9.38 6.28 7 9 C8.56891482 12.13782964 10.02310093 14.50839252 12.125 17.25 C12.66382813 17.95640625 13.20265625 18.6628125 13.7578125 19.390625 C14.16773438 19.92171875 14.57765625 20.4528125 15 21 C11.37386801 20.43040847 9.74482259 19.07625466 7.25 16.4375 C6.63640625 15.79683594 6.0228125 15.15617188 5.390625 14.49609375 C4.93171875 14.00238281 4.4728125 13.50867188 4 13 C3.67 15.97 3.34 18.94 3 22 C2.01 22 1.02 22 0 22 C0 14.74 0 7.48 0 0 Z " fill="#373737" transform="translate(219,186)"/>
<path d="M0 0 C0.66 0.33 1.32 0.66 2 1 C1.525625 1.433125 1.05125 1.86625 0.5625 2.3125 C-1.23686957 4.02309613 -1.23686957 4.02309613 -2 7 C-1.01 7.33 -0.02 7.66 1 8 C-1.89503383 8.50505263 -4.79087953 9.0042022 -7.6875 9.5 C-8.50412109 9.64308594 -9.32074219 9.78617187 -10.16210938 9.93359375 C-14.14978248 10.61165962 -17.93730404 11.19858392 -22 11 C-20.68 9.35 -19.36 7.7 -18 6 C-19.32 5.34 -20.64 4.68 -22 4 C-20.24623047 3.81824219 -20.24623047 3.81824219 -18.45703125 3.6328125 C-16.90881329 3.46391599 -15.36063839 3.29462432 -13.8125 3.125 C-12.65911133 3.00705078 -12.65911133 3.00705078 -11.48242188 2.88671875 C-7.29303661 2.4192337 -3.91352196 1.63616172 0 0 Z " fill="#282828" transform="translate(190,286)"/>
<path d="M0 0 C2.52229834 0.51794031 4.99049611 1.10923784 7.46484375 1.8203125 C6.80484375 3.1403125 6.14484375 4.4603125 5.46484375 5.8203125 C8.42641335 7.3010973 11.2999067 7.17345287 14.58984375 7.3828125 C15.87117188 7.46660156 17.1525 7.55039062 18.47265625 7.63671875 C19.95378906 7.72759766 19.95378906 7.72759766 21.46484375 7.8203125 C21.46484375 8.1503125 21.46484375 8.4803125 21.46484375 8.8203125 C7.81227105 9.30501922 -4.34037236 8.42914228 -17.53515625 4.8203125 C-14.98093644 4.1007366 -13.29700877 3.8355134 -10.59765625 4.0078125 C-7.39208564 4.1399117 -7.39208564 4.1399117 -5.28515625 1.6953125 C-2.53515625 -0.1796875 -2.53515625 -0.1796875 0 0 Z " fill="#3B3B3B" transform="translate(372.53515625,287.1796875)"/>
<path d="M0 0 C0.99 0.66 1.98 1.32 3 2 C3 2.66 3 3.32 3 4 C2.484375 3.835 1.96875 3.67 1.4375 3.5 C-1.77682668 2.84065094 -4.72846085 2.81824783 -8 3 C-10.21559352 4.80197672 -10.21559352 4.80197672 -10.265625 7.27734375 C-10.26046875 8.15519531 -10.2553125 9.03304687 -10.25 9.9375 C-10.25515625 10.81277344 -10.2603125 11.68804687 -10.265625 12.58984375 C-10.15833837 15.26105634 -10.15833837 15.26105634 -8 18 C-5.33346095 18.36460453 -5.33346095 18.36460453 -2.375 18.1875 C-1.37210937 18.16042969 -0.36921875 18.13335937 0.6640625 18.10546875 C1.82035156 18.05326172 1.82035156 18.05326172 3 18 C1.3703437 19.95143557 0.43023084 20.90331891 -2.0859375 21.46875 C-6.17470755 21.52456939 -8.47557927 21.31037146 -12.0625 19.1875 C-14.91134362 14.50069275 -14.96939828 10.34370789 -14 5 C-10.59731713 -0.59796214 -6.09414918 -1.08416512 0 0 Z " fill="#3C3C3C" transform="translate(274,186)"/>
<path d="M0 0 C0.66 1.32 1.32 2.64 2 4 C1.484375 3.835 0.96875 3.67 0.4375 3.5 C-2.80276514 2.83533023 -5.7027333 2.75575802 -9 3 C-11.08133467 6.122002 -11.2737822 6.93266989 -11.25 10.5 C-11.25515625 11.2734375 -11.2603125 12.046875 -11.265625 12.84375 C-11.12738062 15.29513844 -11.12738062 15.29513844 -9 18 C-6.33346095 18.36460453 -6.33346095 18.36460453 -3.375 18.1875 C-2.37210938 18.16042969 -1.36921875 18.13335937 -0.3359375 18.10546875 C0.82035156 18.05326172 0.82035156 18.05326172 2 18 C0.35452013 19.98193582 -0.55875703 20.90980116 -3.12109375 21.43359375 C-9.40773976 21.44419518 -9.40773976 21.44419518 -12.5 19.125 C-15.51437412 14.85463666 -15.72126692 11.12614704 -15 6 C-12.21257145 -1.01123609 -6.53313876 -0.68502814 0 0 Z " fill="#2E2E2E" transform="translate(205,186)"/>
<path d="M0 0 C4.62 0 9.24 0 14 0 C14 0.33 14 0.66 14 1 C10.37 1 6.74 1 3 1 C3 3.97 3 6.94 3 10 C6.3 10 9.6 10 13 10 C13 10.33 13 10.66 13 11 C9.7 11 6.4 11 3 11 C3 13.97 3 16.94 3 20 C6.96 20 10.92 20 15 20 C15 20.33 15 20.66 15 21 C10.05 21 5.1 21 0 21 C0 14.07 0 7.14 0 0 Z " fill="#1E1E1E" transform="translate(380,186)"/>
<path d="M0 0 C2.875 -0.125 2.875 -0.125 6 0 C8 2 8 2 8.25 5 C8 8 8 8 6 10 C2.875 10.125 2.875 10.125 0 10 C0 6.7 0 3.4 0 0 Z " fill="#E0E0E0" transform="translate(409,187)"/>
<path d="M0 0 C2.875 -0.125 2.875 -0.125 6 0 C8 2 8 2 8.25 5 C8 8 8 8 6 10 C2.875 10.125 2.875 10.125 0 10 C0 6.7 0 3.4 0 0 Z " fill="#E0E0E0" transform="translate(332,187)"/>
<path d="M0 0 C0.99 0 1.98 0 3 0 C3 7.26 3 14.52 3 22 C2.01 22 1.02 22 0 22 C0 14.74 0 7.48 0 0 Z " fill="#3A3A3A" transform="translate(175,185)"/>
<path d="M0 0 C2.875 -0.125 2.875 -0.125 6 0 C6.66 0.66 7.32 1.32 8 2 C7.625 5.125 7.625 5.125 7 8 C4.69 8.33 2.38 8.66 0 9 C0 6.03 0 3.06 0 0 Z " fill="#E7E7E7" transform="translate(358,188)"/>
<path d="M0 0 C0.99 0 1.98 0 3 0 C3 6.93 3 13.86 3 21 C2.01 21 1.02 21 0 21 C0 14.07 0 7.14 0 0 Z " fill="#292929" transform="translate(314,186)"/>
<path d="M0 0 C0.99 0 1.98 0 3 0 C3.33 6.6 3.66 13.2 4 20 C0 16 0 16 -0.390625 12.109375 C-0.36419517 10.6557344 -0.31671569 9.20234932 -0.25 7.75 C-0.23195312 7.00492188 -0.21390625 6.25984375 -0.1953125 5.4921875 C-0.14835649 3.66090299 -0.07661652 1.83028351 0 0 Z " fill="#393939" transform="translate(145,185)"/>
<path d="M0 0 C2.46800047 1.15173355 4.04783565 2.04783565 6 4 C6.65279028 8.31519808 6.40558901 12.05362564 4.6875 16.0625 C4.130625 16.701875 3.57375 17.34125 3 18 C2.01 18 1.02 18 0 18 C0.33 17.34 0.66 16.68 1 16 C2.61278002 11.16165994 2.61278002 6.83834006 1 2 C0.67 1.34 0.34 0.68 0 0 Z " fill="#292929" transform="translate(128,187)"/>
<path d="M0 0 C1.98 0 3.96 0 6 0 C6 0.33 6 0.66 6 1 C4.35 1 2.7 1 1 1 C1 7.6 1 14.2 1 21 C0.01 21 -0.98 21 -2 21 C-2.02687279 19.18757948 -2.04633715 17.37504767 -2.0625 15.5625 C-2.07410156 14.55316406 -2.08570313 13.54382813 -2.09765625 12.50390625 C-2 10 -2 10 -1 9 C-0.76807135 7.48530552 -0.58784762 5.96245438 -0.4375 4.4375 C-0.35371094 3.61121094 -0.26992188 2.78492188 -0.18359375 1.93359375 C-0.12300781 1.29550781 -0.06242187 0.65742188 0 0 Z " fill="#4D4D4D" transform="translate(357,187)"/>
<path d="M0 0 C-0.7115625 0.6496875 -0.7115625 0.6496875 -1.4375 1.3125 C-3.23686957 3.02309613 -3.23686957 3.02309613 -4 6 C-3.01 6.33 -2.02 6.66 -1 7 C-4.63 7.33 -8.26 7.66 -12 8 C-10.68 7.67 -9.36 7.34 -8 7 C-9.32 5.35 -10.64 3.7 -12 2 C-10.37787941 1.47026689 -8.75218416 0.95146893 -7.125 0.4375 C-6.22007812 0.14746094 -5.31515625 -0.14257812 -4.3828125 -0.44140625 C-2 -1 -2 -1 0 0 Z " fill="#373737" transform="translate(192,287)"/>
<path d="M0 0 C1.65 0.33 3.3 0.66 5 1 C5 1.33 5 1.66 5 2 C10.28 2.33 15.56 2.66 21 3 C21 3.33 21 3.66 21 4 C10.77 4 0.54 4 -10 4 C-10 3.67 -10 3.34 -10 3 C-7.03 3 -4.06 3 -1 3 C-0.67 2.01 -0.34 1.02 0 0 Z " fill="#D4D4D4" transform="translate(222,319)"/>
<path d="M0 0 C3.3 0.66 6.6 1.32 10 2 C10 2.66 10 3.32 10 4 C12.97 4.495 12.97 4.495 16 5 C16 5.66 16 6.32 16 7 C13.66666667 6.66666667 11.33333333 6.33333333 9 6 C7.7625 5.87625 6.525 5.7525 5.25 5.625 C1.99765595 4.99954922 0.92636339 4.60625635 -1 2 C-0.67 1.34 -0.34 0.68 0 0 Z " fill="#535353" transform="translate(119,203)"/>
<path d="M0 0 C3 1 3 1 5 4 C7.66653905 4.36460453 7.66653905 4.36460453 10.625 4.1875 C11.62789063 4.16042969 12.63078125 4.13335937 13.6640625 4.10546875 C14.43492187 4.07066406 15.20578125 4.03585938 16 4 C14.35452013 5.98193582 13.44124297 6.90980116 10.87890625 7.43359375 C4.62791507 7.44413505 4.62791507 7.44413505 1.4375 5.1875 C0 3 0 3 0 0 Z " fill="#3C3C3C" transform="translate(261,200)"/>
<path d="M0 0 C1.60332791 -0.08121924 3.20784026 -0.13929134 4.8125 -0.1875 C6.15248047 -0.23970703 6.15248047 -0.23970703 7.51953125 -0.29296875 C10 0 10 0 11.8125 1.3125 C13.58043356 3.82482663 13.19885058 6.0172413 13 9 C12.01 9.495 12.01 9.495 11 10 C10.690625 8.865625 10.38125 7.73125 10.0625 6.5625 C9.37075469 3.21224901 9.37075469 3.21224901 8 2 C5.67182036 1.63239269 3.3381615 1.29758419 1 1 C1 3.31 1 5.62 1 8 C0.67 8 0.34 8 0 8 C0 5.36 0 2.72 0 0 Z " fill="#1E1E1E" transform="translate(330,186)"/>
<path d="M0 0 C3.9252025 3.70090521 6.94580156 7.54959656 10 12 C6.48850159 11.41604794 4.70968242 10.16720355 2.1875 7.6875 C1.24970703 6.79611328 1.24970703 6.79611328 0.29296875 5.88671875 C-1 4 -1 4 -0.69921875 1.76953125 C-0.46847656 1.18558594 -0.23773438 0.60164062 0 0 Z " fill="#383838" transform="translate(224,195)"/>
<path d="M0 0 C0.33 0.99 0.66 1.98 1 3 C3.00016466 4.20882096 3.00016466 4.20882096 5 5 C3.22844346 4.88570603 1.45773771 4.75816963 -0.3125 4.625 C-1.29863281 4.55539062 -2.28476563 4.48578125 -3.30078125 4.4140625 C-6 4 -6 4 -9 2 C-3.375 0 -3.375 0 0 0 Z " fill="#C1C1C1" transform="translate(146,307)"/>
<path d="M0 0 C2.475 0.99 2.475 0.99 5 2 C5.1875 5.375 5.1875 5.375 5 9 C4.01 9.66 3.02 10.32 2 11 C1.77213542 9.01432292 1.54427083 7.02864583 1.31640625 5.04296875 C1.02829265 2.80603607 1.02829265 2.80603607 0 0 Z " fill="#2C2C2C" transform="translate(415,186)"/>
<path d="M0 0 C-0.33 0.66 -0.66 1.32 -1 2 C-3.33157492 2.34541851 -5.66508361 2.67794257 -8 3 C-8.99 3.66 -9.98 4.32 -11 5 C-11.66 4.34 -12.32 3.68 -13 3 C-9.21656826 -0.94792877 -5.07874402 -0.29300446 0 0 Z " fill="#484848" transform="translate(129,186)"/>
<path d="M0 0 C0.33 0 0.66 0 1 0 C1 2.97 1 5.94 1 9 C0.34 9 -0.32 9 -1 9 C-1.33 9.66 -1.66 10.32 -2 11 C-2.05399736 9.54207116 -2.09279177 8.08357288 -2.125 6.625 C-2.15980469 5.40683594 -2.15980469 5.40683594 -2.1953125 4.1640625 C-2 2 -2 2 0 0 Z " fill="#292929" transform="translate(262,191)"/>
<path d="M0 0 C-0.99 1.485 -0.99 1.485 -2 3 C-5.3 2.67 -8.6 2.34 -12 2 C-12 1.67 -12 1.34 -12 1 C-7.93631321 0.22596442 -4.13574827 -0.0984702 0 0 Z " fill="#D3D3D3" transform="translate(185,295)"/>
<path d="M0 0 C3.875 0.875 3.875 0.875 5 2 C5.04063832 3.66617115 5.042721 5.33388095 5 7 C3.29115995 5.37660195 1.62553283 3.70680947 0 2 C0 1.34 0 0.68 0 0 Z " fill="#2F2F2F" transform="translate(363,186)"/>
<path d="M0 0 C0.99 0.33 1.98 0.66 3 1 C1.35 2.98 -0.3 4.96 -2 7 C-2.33 6.01 -2.66 5.02 -3 4 C-1.5625 1.8125 -1.5625 1.8125 0 0 Z " fill="#383838" transform="translate(230,186)"/>
<path d="M0 0 C0 0.66 0 1.32 0 2 C-3.3 1.34 -6.6 0.68 -10 0 C-10 -0.33 -10 -0.66 -10 -1 C-5.92224809 -1.9267618 -3.57818963 -2.33958553 0 0 Z " fill="#4B4B4B" transform="translate(207,188)"/>
</svg>
